<svg width="16" height="14" viewBox="0 0 16 14" fill="none" xmlns="http://www.w3.org/2000/svg">
<path d="M0 1.16667C0 0.521354 0.510714 0 1.14286 0H14.8571C15.4893 0 16 0.521354 16 1.16667C16 1.81198 15.4893 2.33333 14.8571 2.33333H1.14286C0.510714 2.33333 0 1.81198 0 1.16667ZM0 7C0 6.35469 0.510714 5.83333 1.14286 5.83333H14.8571C15.4893 5.83333 16 6.35469 16 7C16 7.64531 15.4893 8.16667 14.8571 8.16667H1.14286C0.510714 8.16667 0 7.64531 0 7ZM16 12.8333C16 13.4786 15.4893 14 14.8571 14H1.14286C0.510714 14 0 13.4786 0 12.8333C0 12.188 0.510714 11.6667 1.14286 11.6667H14.8571C15.4893 11.6667 16 12.188 16 12.8333Z" fill="#F47DDA"/>
</svg>
