<svg width="32" height="32" viewBox="0 0 32 32" fill="none" xmlns="http://www.w3.org/2000/svg">
<path d="M32 16C32 24.8375 24.8375 32 16 32C7.1625 32 0 24.8375 0 16C0 7.1625 7.1625 0 16 0C24.8375 0 32 7.1625 32 16ZM11.7688 9.19375C11.2937 9.45625 11 9.9625 11 10.5V21.5C11 22.0438 11.2937 22.5437 11.7688 22.8062C12.2438 23.0688 12.8188 23.0625 13.2875 22.775L22.2875 17.275C22.7313 17 23.0063 16.5187 23.0063 15.9937C23.0063 15.4688 22.7313 14.9875 22.2875 14.7125L13.2875 9.2125C12.825 8.93125 12.2438 8.91875 11.7688 9.18125V9.19375Z" fill="#A4FFA2"/>
</svg>
