<svg width="17" height="16" viewBox="0 0 17 16" fill="none" xmlns="http://www.w3.org/2000/svg">
<path d="M8.00357 3.8978C5.7329 3.8978 3.90137 5.72933 3.90137 8C3.90137 10.2707 5.7329 12.1022 8.00357 12.1022C10.2742 12.1022 12.1058 10.2707 12.1058 8C12.1058 5.72933 10.2742 3.8978 8.00357 3.8978ZM8.00357 10.667C6.5362 10.667 5.33661 9.47094 5.33661 8C5.33661 6.52906 6.53263 5.33304 8.00357 5.33304C9.47451 5.33304 10.6705 6.52906 10.6705 8C10.6705 9.47094 9.47094 10.667 8.00357 10.667ZM13.2304 3.73C13.2304 4.26197 12.802 4.68682 12.2736 4.68682C11.7416 4.68682 11.3167 4.2584 11.3167 3.73C11.3167 3.20161 11.7452 2.77318 12.2736 2.77318C12.802 2.77318 13.2304 3.20161 13.2304 3.73ZM15.9473 4.7011C15.8866 3.41939 15.5939 2.28406 14.6549 1.34866C13.7195 0.413254 12.5842 0.120495 11.3025 0.0562312C9.98148 -0.0187437 6.02209 -0.0187437 4.7011 0.0562312C3.42296 0.116925 2.28763 0.409684 1.34866 1.34509C0.409684 2.28049 0.120495 3.41582 0.0562312 4.69753C-0.0187437 6.01852 -0.0187437 9.97791 0.0562312 11.2989C0.116925 12.5806 0.409684 13.7159 1.34866 14.6513C2.28763 15.5867 3.41939 15.8795 4.7011 15.9438C6.02209 16.0187 9.98148 16.0187 11.3025 15.9438C12.5842 15.8831 13.7195 15.5903 14.6549 14.6513C15.5903 13.7159 15.8831 12.5806 15.9473 11.2989C16.0223 9.97791 16.0223 6.02209 15.9473 4.7011ZM14.2408 12.7163C13.9623 13.416 13.4232 13.9551 12.7198 14.2372C11.6666 14.6549 9.16747 14.5585 8.00357 14.5585C6.83967 14.5585 4.33694 14.6513 3.28729 14.2372C2.58753 13.9587 2.04842 13.4196 1.76637 12.7163C1.34866 11.6631 1.44505 9.1639 1.44505 8C1.44505 6.8361 1.35223 4.33337 1.76637 3.28372C2.04485 2.58396 2.58396 2.04485 3.28729 1.7628C4.34051 1.34509 6.83967 1.44148 8.00357 1.44148C9.16747 1.44148 11.6702 1.34866 12.7198 1.7628C13.4196 2.04128 13.9587 2.58039 14.2408 3.28372C14.6585 4.33694 14.5621 6.8361 14.5621 8C14.5621 9.1639 14.6585 11.6666 14.2408 12.7163Z" fill="#A4FFA2"/>
</svg>
