<svg width="16" height="16" viewBox="0 0 16 16" fill="none" xmlns="http://www.w3.org/2000/svg">
<path d="M12.5714 6.85714C14.4643 6.85714 16 5.32143 16 3.42857C16 1.53571 14.4643 0 12.5714 0C10.6786 0 9.14286 1.53571 9.14286 3.42857C9.14286 3.57143 9.15 3.71429 9.16786 3.85357L5.80714 5.53214C5.19286 4.93571 4.35357 4.57143 3.42857 4.57143C1.53571 4.57143 0 6.10714 0 8C0 9.89286 1.53571 11.4286 3.42857 11.4286C4.35357 11.4286 5.19286 11.0643 5.80714 10.4679L9.16786 12.1464C9.15 12.2857 9.14286 12.425 9.14286 12.5714C9.14286 14.4643 10.6786 16 12.5714 16C14.4643 16 16 14.4643 16 12.5714C16 10.6786 14.4643 9.14286 12.5714 9.14286C11.6464 9.14286 10.8071 9.50714 10.1929 10.1036L6.83214 8.425C6.85 8.28571 6.85714 8.14643 6.85714 8C6.85714 7.85357 6.85 7.71429 6.83214 7.575L10.1929 5.89643C10.8071 6.49286 11.6464 6.85714 12.5714 6.85714Z" fill="#A4FFA2"/>
</svg>
