<svg width="37" height="16" viewBox="0 0 37 16" fill="none" xmlns="http://www.w3.org/2000/svg">
<path d="M6.39897 8.01439L6.73213 11.7567L6.39897 15.6891C6.38174 15.833 6.2726 15.9424 6.14623 15.9424C6.01986 15.9424 5.90497 15.833 5.90497 15.6891L5.5833 11.7567L5.90497 8.01439C5.90497 7.88773 6.01411 7.77258 6.14623 7.77258C6.2726 7.77258 6.38174 7.88773 6.39897 8.01439ZM7.62822 5.38899C7.46738 5.38899 7.35824 5.51565 7.34101 5.67686L7.0538 11.7567L7.34101 15.6891C7.35824 15.8503 7.46738 15.977 7.62822 15.977C7.77182 15.977 7.89819 15.8503 7.89819 15.6891L8.23135 11.7567L7.89819 5.67686C7.89819 5.51565 7.77182 5.38899 7.62822 5.38899ZM9.09297 4.00144C8.9149 4.00144 8.78853 4.1281 8.7713 4.30658L8.51856 11.7913L8.7713 15.6949C8.78853 15.8733 8.9149 16 9.09297 16C9.25381 16 9.39741 15.8733 9.39741 15.6949L9.70185 11.7913L9.39741 4.30658C9.39741 4.1281 9.25381 4.00144 9.09297 4.00144ZM0.413578 9.56315C0.33316 9.56315 0.287207 9.62648 0.269974 9.70709L0 11.7567L0.269974 13.7719C0.287207 13.8525 0.33316 13.9158 0.413578 13.9158C0.493996 13.9158 0.539949 13.8525 0.557181 13.7719L0.878853 11.7567L0.557181 9.70709C0.539949 9.62648 0.493996 9.56315 0.413578 9.56315ZM1.76919 8.30227C1.68878 8.30227 1.62559 8.3656 1.62559 8.4462L1.25797 11.7567L1.62559 14.9867C1.62559 15.0846 1.68878 15.1479 1.76919 15.1479C1.84961 15.1479 1.9128 15.0846 1.93003 15.004L2.34361 11.7567L1.93003 8.4462C1.9128 8.3656 1.84961 8.30227 1.76919 8.30227ZM3.22246 7.64592C3.12481 7.64592 3.04439 7.72652 3.03291 7.83591L2.69975 11.7567L3.03291 15.5452C3.05014 15.643 3.13056 15.7236 3.22246 15.7236C3.32011 15.7236 3.40053 15.643 3.40053 15.5452L3.79688 11.7567L3.40053 7.83591C3.40053 7.72652 3.32011 7.64592 3.22246 7.64592ZM4.67573 7.51925C4.56659 7.51925 4.46894 7.59986 4.46894 7.72652L4.13578 11.7567L4.46894 15.6603C4.46894 15.787 4.56659 15.8676 4.67573 15.8676C4.78487 15.8676 4.88252 15.787 4.89975 15.6603L5.26737 11.7567L4.89975 7.72652C4.88252 7.59986 4.78487 7.51925 4.67573 7.51925ZM18.5421 1.13422C18.4789 1.08816 18.3812 1.05362 18.3008 1.05362C18.1745 1.05362 18.0596 1.09968 17.9792 1.16301C17.87 1.26089 17.8011 1.40482 17.7896 1.54876V1.59482L17.6 11.7683L17.6977 13.6394L17.7953 15.4646C17.8126 15.7352 18.0366 15.9597 18.3066 15.9597C18.5765 15.9597 18.8006 15.7352 18.8006 15.4646L19.0246 11.7683L18.8006 1.54876C18.7776 1.37603 18.6857 1.21483 18.5421 1.13422ZM17.0084 2.01511C16.928 1.96905 16.8476 1.93451 16.7557 1.93451C16.6637 1.93451 16.5776 1.96905 16.5029 2.01511C16.3765 2.09572 16.2961 2.23965 16.2961 2.40086L16.2789 2.49874L16.1181 11.7567C16.1181 11.7567 16.1181 11.774 16.2961 15.5336V15.5509C16.2961 15.6488 16.3306 15.7409 16.3938 15.8215C16.4914 15.9309 16.6178 16 16.7614 16C16.8878 16 17.0027 15.9367 17.0831 15.8561C17.1807 15.7755 17.2267 15.6661 17.2267 15.5336L17.2439 15.1479L17.422 11.774L17.2324 2.40086C17.2152 2.23965 17.1348 2.09572 17.0084 2.01511ZM10.6094 3.31054C10.4314 3.31054 10.2763 3.47175 10.2763 3.66175L10.0235 11.7567L10.2763 15.6258C10.2935 15.8158 10.4371 15.9597 10.6094 15.9597C10.799 15.9597 10.9426 15.8158 10.9598 15.6258L11.247 11.7567L10.9598 3.66175C10.9483 3.47175 10.8047 3.31054 10.6094 3.31054ZM32.2476 6.92623C31.6272 6.92623 31.0356 7.0529 30.4899 7.27744C30.1223 3.20115 26.7102 0 22.5457 0C21.5233 0 20.5353 0.189996 19.6564 0.541202C19.3061 0.667866 19.2084 0.79453 19.2084 1.07089V15.4473C19.2084 15.7352 19.4324 15.9424 19.7024 15.977H32.2419C34.7291 15.977 36.7567 13.9619 36.7567 11.4689C36.7625 8.95862 34.7348 6.92623 32.2476 6.92623ZM15.2047 3.45448C14.9635 3.45448 14.7739 3.64448 14.7567 3.90356L14.5671 11.774L14.7567 15.5509C14.7739 15.7927 14.9635 15.9827 15.2047 15.9827C15.446 15.9827 15.6355 15.7927 15.6355 15.5509L15.8596 11.774L15.6355 3.90356C15.6183 3.64448 15.446 3.45448 15.2047 3.45448ZM12.1259 3.0054C11.9363 3.0054 11.7583 3.18388 11.7583 3.39115L11.5342 11.7567L11.7583 15.6085C11.7755 15.8158 11.9363 15.977 12.1259 15.977C12.3327 15.977 12.4935 15.8158 12.5107 15.6085L12.7635 11.7567L12.5107 3.39115C12.4935 3.18388 12.3327 3.0054 12.1259 3.0054ZM13.6596 3.20115C13.4355 3.20115 13.2632 3.37963 13.2632 3.59842L13.0392 11.7567L13.2632 15.5797C13.2804 15.8042 13.4413 15.977 13.6596 15.977C13.8778 15.977 14.0559 15.7985 14.0559 15.5797L14.2972 11.7567L14.0559 3.59842C14.0559 3.37388 13.8836 3.20115 13.6596 3.20115Z" fill="#A4FFA2"/>
</svg>
