<svg width="13" height="12" viewBox="0 0 13 12" fill="none" xmlns="http://www.w3.org/2000/svg">
<path d="M6.86071 0.421828C6.73651 0.164044 6.47404 0 6.18579 0C5.89754 0 5.63741 0.164044 5.51086 0.421828L4.004 3.52226L0.638751 4.01908C0.357533 4.06126 0.123184 4.25812 0.0364751 4.52762C-0.0502339 4.79712 0.0200706 5.09474 0.221611 5.29394L2.66352 7.71007L2.08703 11.1245C2.04016 11.4058 2.15733 11.6917 2.38934 11.858C2.62134 12.0244 2.92834 12.0455 3.18144 11.9119L6.18813 10.3067L9.19482 11.9119C9.44792 12.0455 9.75492 12.0268 9.98692 11.858C10.2189 11.6893 10.3361 11.4058 10.2892 11.1245L9.71039 7.71007L12.1523 5.29394C12.3538 5.09474 12.4265 4.79712 12.3374 4.52762C12.2484 4.25812 12.0164 4.06126 11.7352 4.01908L8.36757 3.52226L6.86071 0.421828Z" fill="#CEC5B4"/>
</svg>
