<svg width="16" height="16" viewBox="0 0 16 16" fill="none" xmlns="http://www.w3.org/2000/svg">
<path d="M15.4515 2.73247C16.0762 2.10776 16.0762 1.09324 15.4515 0.46853C14.8268 -0.156177 13.8123 -0.156177 13.1876 0.46853L7.92505 5.73606L2.65752 0.473528C2.03281 -0.151179 1.01829 -0.151179 0.393579 0.473528C-0.231128 1.09824 -0.231128 2.11276 0.393579 2.73747L5.66111 8L0.398577 13.2675C-0.22613 13.8922 -0.22613 14.9068 0.398577 15.5315C1.02328 16.1562 2.03781 16.1562 2.66252 15.5315L7.92505 10.2639L13.1926 15.5265C13.8173 16.1512 14.8318 16.1512 15.4565 15.5265C16.0812 14.9018 16.0812 13.8872 15.4565 13.2625L10.189 8L15.4515 2.73247Z" fill="#F47DDA"/>
</svg>
