<svg width="55" height="56" viewBox="0 0 55 56" fill="none" xmlns="http://www.w3.org/2000/svg">
<g filter="url(#filter0_d_60_4717)">
<path d="M34.341 19.0063C34.3349 19.0125 33.8556 19.0326 32.9486 19.0627C32.7262 19.0702 32.3771 19.0815 32.1744 19.0877C31.9716 19.0952 31.4739 19.1115 31.0683 19.1253C30.6628 19.1391 30.1245 19.1566 29.8725 19.1642L29.4141 19.1805L27.8374 20.8158C26.971 21.7155 25.6056 23.1341 24.8031 23.9674C24.0006 24.8007 23.3456 25.485 23.348 25.4875C23.3529 25.4912 23.6639 25.5037 24.7269 25.5413C24.9297 25.5489 25.2394 25.5601 25.4151 25.5664C25.5909 25.5727 25.9227 25.584 26.1525 25.5927C26.3823 25.6002 26.5753 25.6115 26.5814 25.6178C26.5925 25.6278 26.1599 26.0664 22.8442 29.4261C22.065 30.2155 21.4272 30.8634 21.4272 30.8684C21.4272 30.8722 21.6164 30.8797 21.8475 30.8847C22.0797 30.8885 22.5627 30.8985 22.9203 30.906C23.2792 30.9123 23.5766 30.9235 23.5828 30.9298C23.5901 30.9373 23.5754 30.9624 23.5459 30.995C23.5188 31.025 22.7594 31.8809 21.8573 32.8972C20.9553 33.9135 20.1663 34.802 20.1036 34.8709C20.0421 34.9398 19.9954 34.9975 20.0004 35C20.0053 35.0012 20.0999 34.9511 20.2117 34.8884C20.7426 34.5852 24.1923 32.6253 26.343 31.4035C27.6641 30.6516 28.7505 30.0326 28.7579 30.0263C28.7653 30.0188 28.6018 30.0163 28.3216 30.0213C26.9771 30.0426 25.5515 30.0526 25.5405 30.0413C25.5257 30.0263 25.1718 30.3183 28.9041 27.2794C30.6677 25.8446 32.1129 24.6629 32.1166 24.6554C32.1203 24.6428 31.759 24.6391 30.3543 24.6366C29.1204 24.6341 28.5871 24.6291 28.5834 24.619C28.5809 24.6128 29.9045 23.3446 31.523 21.8033L34.4664 19H34.4074C34.3742 19 34.3447 19.0025 34.341 19.0063Z" fill="#A4FFA2"/>
</g>
<defs>
<filter id="filter0_d_60_4717" x="0" y="0" width="54.4663" height="56" filterUnits="userSpaceOnUse" color-interpolation-filters="sRGB">
<feFlood flood-opacity="0" result="BackgroundImageFix"/>
<feColorMatrix in="SourceAlpha" type="matrix" values="0 0 0 0 0 0 0 0 0 0 0 0 0 0 0 0 0 0 127 0" result="hardAlpha"/>
<feOffset dy="1"/>
<feGaussianBlur stdDeviation="10"/>
<feComposite in2="hardAlpha" operator="out"/>
<feColorMatrix type="matrix" values="0 0 0 0 0.635294 0 0 0 0 1 0 0 0 0 0.847059 0 0 0 1 0"/>
<feBlend mode="normal" in2="BackgroundImageFix" result="effect1_dropShadow_60_4717"/>
<feBlend mode="normal" in="SourceGraphic" in2="effect1_dropShadow_60_4717" result="shape"/>
</filter>
</defs>
</svg>
