<svg width="134" height="29" viewBox="0 0 134 29" fill="none" xmlns="http://www.w3.org/2000/svg">
<path d="M13.4412 15.1204L13.4412 21.1255C13.4186 21.4607 13.7084 21.9407 14.3017 21.8818C15.9909 21.6509 17.5941 20.9851 18.9301 19.9616C19.1067 19.8213 19.4463 19.3503 18.9844 18.8159L14.7591 14.5724C14.1341 13.9792 13.4412 14.26 13.4412 15.1204Z" fill="#F47DDA"/>
<path d="M10.0803 12.6387L4.07523 12.6387C3.63141 12.6387 3.25553 13.0327 3.30082 13.4991C3.53178 15.1884 4.1975 16.7915 5.221 18.1275C5.5199 18.5124 6.04976 18.4898 6.36677 18.1818L10.6283 13.9384C11.2035 13.2772 10.7823 12.6387 10.0803 12.6387Z" fill="#F47DDA"/>
<path d="M7.05072 19.9796C8.3867 21.0166 9.98987 21.6688 11.6791 21.8998C12.3539 21.9541 12.5396 21.3699 12.5396 21.1435L12.5396 15.1202C12.5396 14.2598 11.7063 13.9745 11.2353 14.5723L6.97373 18.8338C6.62955 19.255 6.73824 19.7486 7.05072 19.9796Z" fill="#F47DDA"/>
<path d="M5.23484 6.24842C4.19776 7.5844 3.54562 9.18757 3.31465 10.8768C3.26031 11.3568 3.60449 11.7191 4.07095 11.7372L10.0806 11.7372C10.9275 11.7418 11.0996 11.0127 10.6286 10.433L6.36702 6.18954C6.20399 6.0401 5.69677 5.74573 5.23484 6.24842Z" fill="#F47DDA"/>
<path d="M11.2041 12.1987C11.5392 12.4976 11.7656 13.0411 11.7339 13.4668C12.4721 13.4622 12.8435 13.82 13.002 13.9785C13.1605 13.82 13.6088 13.4532 14.27 13.4668L11.7339 10.9307C11.7566 11.379 11.5392 11.8998 11.2041 12.1987Z" fill="#F47DDA"/>
<path d="M22.1909 21.3884L20.1303 19.3097C20.1711 19.7445 19.8994 20.3468 19.4963 20.6638C18.0335 21.7915 16.2764 22.5115 14.4422 22.7606C13.9667 22.8331 13.2376 22.584 12.9976 22.2489C12.5402 22.7063 12.0284 22.8285 11.5529 22.7606C9.7233 22.516 7.96162 21.7914 6.49883 20.6638C6.09577 20.3468 5.86028 19.8984 5.86481 19.3097C5.26702 19.3278 4.7915 19.047 4.4926 18.6757C3.36495 17.2129 2.64488 15.4557 2.3958 13.6216C2.31428 12.9649 2.59053 12.4758 2.90754 12.1769C2.88943 12.1588 2.26899 11.6742 2.3958 10.7504C2.64035 8.92077 3.36495 7.15909 4.4926 5.69631C4.77338 5.32495 5.23079 5.0487 5.86481 5.06228L3.80423 3.00171C-1.26796 8.0739 -1.26796 16.3117 3.80423 21.3839C8.87642 26.4561 17.1233 26.4606 22.1909 21.3884Z" fill="#F47DDA"/>
<path d="M22.0822 3.00532C22.0769 3.01075 21.6633 3.02813 20.8807 3.0542C20.6888 3.06072 20.3876 3.07049 20.2127 3.07593C20.0377 3.08244 19.6083 3.09656 19.2583 3.10851C18.9084 3.12046 18.4439 3.13567 18.2265 3.14219L17.831 3.15631L16.4705 4.57386C15.7229 5.35379 14.5448 6.58343 13.8524 7.30578C13.1599 8.02814 12.5947 8.62123 12.5969 8.6234C12.6011 8.62666 12.8694 8.63752 13.7866 8.67011C13.9616 8.67663 14.2288 8.6864 14.3805 8.69184C14.5321 8.69727 14.8184 8.70704 15.0167 8.71465C15.215 8.72116 15.3815 8.73094 15.3868 8.73637C15.3963 8.74506 15.0231 9.12525 12.1621 12.0375C11.4898 12.7218 10.9394 13.2834 10.9394 13.2878C10.9394 13.291 11.1027 13.2975 11.3021 13.3019C11.5025 13.3051 11.9193 13.3138 12.2278 13.3203C12.5375 13.3258 12.7941 13.3356 12.7994 13.341C12.8058 13.3475 12.793 13.3692 12.7676 13.3975C12.7443 13.4235 12.0889 14.1654 11.3106 15.0464C10.5322 15.9273 9.85147 16.6975 9.79739 16.7572C9.74437 16.817 9.70407 16.8669 9.70831 16.8691C9.71256 16.8702 9.79421 16.8268 9.8907 16.7724C10.3488 16.5096 13.3254 14.8107 15.1811 13.7516C16.321 13.0998 17.2584 12.5632 17.2648 12.5578C17.2711 12.5513 17.1301 12.5491 16.8883 12.5535C15.7282 12.5719 14.4982 12.5806 14.4886 12.5708C14.4759 12.5578 14.1705 12.8109 17.3909 10.1767C18.9126 8.93298 20.1597 7.90865 20.1628 7.90213C20.166 7.89127 19.8543 7.88801 18.6422 7.88584C17.5776 7.88367 17.1174 7.87932 17.1142 7.87063C17.1121 7.8652 18.2541 6.76591 19.6507 5.42983L22.1903 2.99989H22.1394C22.1108 2.99989 22.0854 3.00206 22.0822 3.00532Z" fill="#A4FFA2"/>
<path d="M37.1417 21.08C36.747 21.08 36.4644 20.9947 36.2937 20.824C36.123 20.6427 36.0377 20.3067 36.0377 19.816C36.0377 19.4853 36.0697 19.064 36.1337 18.552C36.2084 18.0293 36.3257 17.3147 36.4857 16.408C36.763 14.7333 36.9817 13.2827 37.1417 12.056C37.2377 11.288 37.2857 10.648 37.2857 10.136C37.2857 9.656 37.1097 9.416 36.7577 9.416C36.4804 9.416 36.1444 9.56 35.7497 9.848C35.3657 10.1253 34.939 10.5733 34.4697 11.192C34.3204 11.3947 34.155 11.496 33.9737 11.496C33.8244 11.496 33.691 11.4267 33.5737 11.288C33.467 11.1387 33.4137 10.9733 33.4137 10.792C33.4137 10.6213 33.4457 10.4507 33.5097 10.28C33.5844 10.0987 33.7017 9.896 33.8617 9.672C34.3737 8.95733 34.9444 8.408 35.5737 8.024C36.203 7.62933 36.8324 7.432 37.4617 7.432C38.0484 7.432 38.4964 7.61867 38.8057 7.992C39.1257 8.36533 39.2857 8.90933 39.2857 9.624C39.2857 9.912 39.259 10.2533 39.2057 10.648C39.1524 11.032 39.1044 11.3467 39.0617 11.592C39.019 11.8373 38.987 12.008 38.9657 12.104C39.5737 10.3653 40.2564 9.15467 41.0137 8.472C41.771 7.77867 42.603 7.432 43.5097 7.432C44.203 7.432 44.747 7.67733 45.1417 8.168C45.547 8.65867 45.7497 9.352 45.7497 10.248C45.7497 10.6 45.7017 11.0373 45.6057 11.56C46.139 10.088 46.763 9.032 47.4777 8.392C48.1924 7.752 49.0137 7.432 49.9417 7.432C50.6884 7.432 51.259 7.672 51.6537 8.152C52.059 8.632 52.2617 9.304 52.2617 10.168C52.2617 10.6373 52.1924 11.208 52.0537 11.88L51.0777 16.456C50.971 16.9893 50.9177 17.448 50.9177 17.832C50.9177 18.28 51.019 18.616 51.2217 18.84C51.435 19.064 51.7284 19.176 52.1017 19.176C52.4537 19.176 52.795 19.0587 53.1257 18.824C53.467 18.5893 53.867 18.2 54.3257 17.656C54.4537 17.5067 54.5977 17.432 54.7577 17.432C54.8964 17.432 55.003 17.496 55.0777 17.624C55.163 17.752 55.2057 17.928 55.2057 18.152C55.2057 18.568 55.1044 18.8987 54.9017 19.144C54.347 19.816 53.7977 20.3067 53.2537 20.616C52.7097 20.9253 52.139 21.08 51.5417 21.08C50.635 21.08 49.9257 20.8133 49.4137 20.28C48.9017 19.736 48.6457 19.0107 48.6457 18.104C48.6457 17.4747 48.7737 16.5627 49.0297 15.368L49.6697 12.44C49.691 12.344 49.7284 12.1733 49.7817 11.928C49.835 11.6827 49.8777 11.4533 49.9097 11.24C49.9417 11.016 49.9577 10.7973 49.9577 10.584C49.9577 10.2107 49.883 9.93333 49.7337 9.752C49.595 9.56 49.3924 9.464 49.1257 9.464C48.6244 9.464 48.0964 9.78933 47.5417 10.44C46.9977 11.08 46.475 12.1467 45.9737 13.64C45.483 15.1333 45.083 17.0747 44.7737 19.464C44.699 20.104 44.5657 20.536 44.3737 20.76C44.1924 20.9733 43.8937 21.08 43.4777 21.08C43.115 21.08 42.8484 20.9947 42.6777 20.824C42.5177 20.6533 42.4377 20.3333 42.4377 19.864C42.4377 19.4267 42.4964 18.856 42.6137 18.152C42.731 17.4373 42.8804 16.6 43.0617 15.64C43.5524 13.0587 43.7977 11.3947 43.7977 10.648C43.7977 10.2427 43.7177 9.944 43.5577 9.752C43.4084 9.56 43.179 9.464 42.8697 9.464C42.347 9.464 41.8084 9.76267 41.2537 10.36C40.699 10.9467 40.155 11.9973 39.6217 13.512C39.099 15.016 38.6617 17.0533 38.3097 19.624C38.235 20.168 38.123 20.5467 37.9737 20.76C37.835 20.9733 37.5577 21.08 37.1417 21.08ZM55.8844 21.08C55.2231 21.08 54.6951 20.84 54.3004 20.36C53.9058 19.88 53.7084 19.2507 53.7084 18.472C53.7084 17.6187 53.9058 16.8133 54.3004 16.056C54.6951 15.288 55.2178 14.6747 55.8684 14.216C56.5298 13.7467 57.2284 13.512 57.9644 13.512C58.1991 13.512 58.3538 13.56 58.4284 13.656C58.5138 13.7413 58.5831 13.9013 58.6364 14.136C58.8604 14.0933 59.0951 14.072 59.3404 14.072C59.8631 14.072 60.1244 14.2587 60.1244 14.632C60.1244 14.856 60.0444 15.3893 59.8844 16.232C59.6391 17.4587 59.5164 18.312 59.5164 18.792C59.5164 18.952 59.5538 19.08 59.6284 19.176C59.7138 19.272 59.8204 19.32 59.9484 19.32C60.1511 19.32 60.3964 19.192 60.6844 18.936C60.9724 18.6693 61.3618 18.2427 61.8524 17.656C61.9804 17.5067 62.1244 17.432 62.2844 17.432C62.4231 17.432 62.5298 17.496 62.6044 17.624C62.6898 17.752 62.7324 17.928 62.7324 18.152C62.7324 18.5787 62.6311 18.9093 62.4284 19.144C61.9911 19.688 61.5271 20.1467 61.0364 20.52C60.5458 20.8933 60.0711 21.08 59.6124 21.08C59.2604 21.08 58.9351 20.9627 58.6364 20.728C58.3484 20.4827 58.1298 20.152 57.9804 19.736C57.4258 20.632 56.7271 21.08 55.8844 21.08ZM56.4604 19.464C56.6951 19.464 56.9191 19.3253 57.1324 19.048C57.3458 18.7707 57.5004 18.4027 57.5964 17.944L58.1884 15C57.7404 15.0107 57.3244 15.1813 56.9404 15.512C56.5671 15.832 56.2684 16.2587 56.0444 16.792C55.8204 17.3253 55.7084 17.8907 55.7084 18.488C55.7084 18.8187 55.7724 19.064 55.9004 19.224C56.0391 19.384 56.2258 19.464 56.4604 19.464ZM69.6241 17.464C69.7627 17.464 69.8694 17.5333 69.9441 17.672C70.0294 17.8 70.0721 17.9653 70.0721 18.168C70.0721 18.4133 70.0347 18.6053 69.9601 18.744C69.8854 18.8827 69.7681 19.0053 69.6081 19.112C68.6907 19.7307 68.0187 20.1893 67.5921 20.488L66.5681 21.176C66.1627 23.384 65.6294 25.1173 64.9681 26.376C64.3174 27.6453 63.4854 28.28 62.4721 28.28C61.9281 28.28 61.4854 28.1093 61.1441 27.768C60.8027 27.4373 60.6321 27 60.6321 26.456C60.6321 25.6987 60.9307 24.8827 61.5281 24.008C62.1254 23.144 63.2454 22.0773 64.8881 20.808L64.9841 20.184C64.8027 20.472 64.5627 20.696 64.2641 20.856C63.9761 21.0053 63.6881 21.08 63.4001 21.08C62.7387 21.08 62.2107 20.84 61.8161 20.36C61.4214 19.88 61.2241 19.2507 61.2241 18.472C61.2241 17.6187 61.4214 16.8133 61.8161 16.056C62.2107 15.288 62.7334 14.6747 63.3841 14.216C64.0454 13.7467 64.7441 13.512 65.4801 13.512C65.7147 13.512 65.8694 13.56 65.9441 13.656C66.0294 13.7413 66.0987 13.9013 66.1521 14.136C66.3547 14.0933 66.5894 14.072 66.8561 14.072C67.1227 14.072 67.3094 14.1147 67.4161 14.2C67.5334 14.2747 67.5921 14.4293 67.5921 14.664C67.5921 14.792 67.5867 14.8933 67.5761 14.968C67.5334 15.2987 67.4001 16.136 67.1761 17.48C67.1334 17.736 67.0854 18.0187 67.0321 18.328C66.9894 18.6267 66.9414 18.9467 66.8881 19.288C67.7094 18.648 68.4987 18.0827 69.2561 17.592C69.3947 17.5067 69.5174 17.464 69.6241 17.464ZM63.9761 19.464C64.2214 19.464 64.4561 19.3147 64.6801 19.016C64.9041 18.7173 65.0641 18.2907 65.1601 17.736L65.6721 15C65.2347 15.0107 64.8294 15.1813 64.4561 15.512C64.0827 15.832 63.7841 16.2587 63.5601 16.792C63.3361 17.3253 63.2241 17.8907 63.2241 18.488C63.2241 18.8187 63.2881 19.064 63.4161 19.224C63.5547 19.384 63.7414 19.464 63.9761 19.464ZM62.6481 26.728C62.9147 26.728 63.2134 26.408 63.5441 25.768C63.8854 25.128 64.2107 24.1093 64.5201 22.712C63.6987 23.416 63.1067 24.0507 62.7441 24.616C62.3814 25.1813 62.2001 25.6773 62.2001 26.104C62.2001 26.2853 62.2321 26.4347 62.2961 26.552C62.3707 26.6693 62.4881 26.728 62.6481 26.728ZM76.2243 17.432C76.363 17.432 76.4696 17.496 76.5443 17.624C76.6296 17.752 76.6723 17.928 76.6723 18.152C76.6723 18.5787 76.571 18.9093 76.3683 19.144C75.9736 19.624 75.4136 20.0667 74.6883 20.472C73.9736 20.8773 73.2056 21.08 72.3843 21.08C71.2643 21.08 70.395 20.776 69.7763 20.168C69.1576 19.56 68.8483 18.728 68.8483 17.672C68.8483 16.936 69.003 16.2533 69.3123 15.624C69.6216 14.984 70.0483 14.4773 70.5923 14.104C71.147 13.7307 71.771 13.544 72.4643 13.544C73.083 13.544 73.579 13.7307 73.9523 14.104C74.3256 14.4667 74.5123 14.9627 74.5123 15.592C74.5123 16.328 74.2456 16.9627 73.7123 17.496C73.1896 18.0187 72.299 18.4347 71.0403 18.744C71.307 19.2347 71.8136 19.48 72.5603 19.48C73.0403 19.48 73.5843 19.3147 74.1923 18.984C74.811 18.6427 75.3443 18.2 75.7923 17.656C75.9203 17.5067 76.0643 17.432 76.2243 17.432ZM72.1923 15.112C71.7976 15.112 71.4616 15.3413 71.1843 15.8C70.9176 16.2587 70.7843 16.8133 70.7843 17.464V17.496C71.4136 17.3467 71.9096 17.1227 72.2723 16.824C72.635 16.5253 72.8163 16.1787 72.8163 15.784C72.8163 15.5813 72.7576 15.4213 72.6403 15.304C72.5336 15.176 72.3843 15.112 72.1923 15.112ZM76.5056 21.08C76.1002 21.08 75.8122 20.8667 75.6416 20.44C75.4816 20.0133 75.4016 19.3307 75.4016 18.392C75.4016 17.0053 75.5989 15.688 75.9936 14.44C76.0896 14.1307 76.2442 13.9067 76.4576 13.768C76.6816 13.6187 76.9909 13.544 77.3856 13.544C77.5989 13.544 77.7482 13.5707 77.8336 13.624C77.9189 13.6773 77.9616 13.7787 77.9616 13.928C77.9616 14.0987 77.8816 14.4827 77.7216 15.08C77.6149 15.5067 77.5296 15.88 77.4656 16.2C77.4016 16.52 77.3482 16.9147 77.3056 17.384C77.6576 16.4667 78.0522 15.72 78.4896 15.144C78.9269 14.568 79.3536 14.1573 79.7696 13.912C80.1962 13.6667 80.5856 13.544 80.9376 13.544C81.6309 13.544 81.9776 13.8907 81.9776 14.584C81.9776 15 81.8602 15.752 81.6256 16.84C81.4229 17.768 81.3216 18.3813 81.3216 18.68C81.3216 19.1067 81.4762 19.32 81.7856 19.32C81.9989 19.32 82.2496 19.192 82.5376 18.936C82.8362 18.6693 83.2309 18.2427 83.7216 17.656C83.8496 17.5067 83.9936 17.432 84.1536 17.432C84.2922 17.432 84.3989 17.496 84.4736 17.624C84.5589 17.752 84.6016 17.928 84.6016 18.152C84.6016 18.5787 84.5002 18.9093 84.2976 19.144C83.8389 19.7093 83.3429 20.1733 82.8096 20.536C82.2869 20.8987 81.6896 21.08 81.0176 21.08C80.4736 21.08 80.0629 20.9253 79.7856 20.616C79.5082 20.296 79.3696 19.8373 79.3696 19.24C79.3696 18.9413 79.4442 18.408 79.5936 17.64C79.7322 16.968 79.8016 16.504 79.8016 16.248C79.8016 16.0773 79.7429 15.992 79.6256 15.992C79.4869 15.992 79.2896 16.1733 79.0336 16.536C78.7882 16.888 78.5322 17.3573 78.2656 17.944C78.0096 18.5307 77.8016 19.1493 77.6416 19.8C77.5242 20.3013 77.3856 20.6427 77.2256 20.824C77.0762 20.9947 76.8362 21.08 76.5056 21.08ZM90.4431 17.432C90.5817 17.432 90.6884 17.496 90.7631 17.624C90.8484 17.752 90.8911 17.928 90.8911 18.152C90.8911 18.5787 90.7897 18.9093 90.5871 19.144C90.1284 19.7093 89.6271 20.1733 89.0831 20.536C88.5391 20.8987 87.9151 21.08 87.2111 21.08C85.0351 21.08 83.9471 19.5493 83.9471 16.488C83.9471 16.0187 83.9631 15.544 83.9951 15.064H83.3711C83.0511 15.064 82.8324 15.0053 82.7151 14.888C82.6084 14.7707 82.5551 14.584 82.5551 14.328C82.5551 13.7307 82.7951 13.432 83.2751 13.432H84.1871C84.3684 12.2587 84.6457 11.1867 85.0191 10.216C85.3924 9.24533 85.8404 8.472 86.3631 7.896C86.8964 7.32 87.4671 7.032 88.0751 7.032C88.5231 7.032 88.8751 7.22933 89.1311 7.624C89.3871 8.01867 89.5151 8.51467 89.5151 9.112C89.5151 10.7653 88.8217 12.2053 87.4351 13.432H89.2271C89.3977 13.432 89.5204 13.4693 89.5951 13.544C89.6697 13.6187 89.7071 13.7573 89.7071 13.96C89.7071 14.696 89.1044 15.064 87.8991 15.064H85.9471C85.9257 15.5973 85.9151 16.0133 85.9151 16.312C85.9151 17.4213 86.0431 18.2 86.2991 18.648C86.5657 19.096 86.9817 19.32 87.5471 19.32C88.0057 19.32 88.4111 19.1813 88.7631 18.904C89.1151 18.6267 89.5311 18.2107 90.0111 17.656C90.1391 17.5067 90.2831 17.432 90.4431 17.432ZM87.6431 8.568C87.4831 8.568 87.3017 8.77067 87.0991 9.176C86.9071 9.57067 86.7204 10.1253 86.5391 10.84C86.3684 11.544 86.2244 12.328 86.1071 13.192C86.7364 12.648 87.2057 12.04 87.5151 11.368C87.8351 10.6853 87.9951 10.0667 87.9951 9.512C87.9951 8.88267 87.8777 8.568 87.6431 8.568ZM91.4283 21.08C90.8203 21.08 90.3243 20.84 89.9403 20.36C89.567 19.88 89.3803 19.2507 89.3803 18.472C89.3803 17.6187 89.5776 16.8133 89.9723 16.056C90.367 15.288 90.8896 14.6747 91.5403 14.216C92.2016 13.7467 92.9003 13.512 93.6363 13.512C93.871 13.512 94.0256 13.56 94.1003 13.656C94.1856 13.7413 94.255 13.9013 94.3083 14.136C94.511 14.0933 94.735 14.072 94.9803 14.072C95.2363 14.072 95.4336 14.136 95.5723 14.264C95.711 14.392 95.7803 14.5733 95.7803 14.808C95.7803 15.0533 95.727 15.48 95.6203 16.088C95.503 16.7387 95.4123 17.3627 95.3483 17.96C95.2843 18.5467 95.2523 19.208 95.2523 19.944C95.2523 20.3493 95.167 20.6427 94.9963 20.824C94.8363 20.9947 94.5696 21.08 94.1963 21.08C93.8336 21.08 93.5616 20.9947 93.3803 20.824C93.2096 20.6427 93.1243 20.3547 93.1243 19.96L93.1403 19.704C92.8096 20.6213 92.239 21.08 91.4283 21.08ZM92.0523 19.464C92.351 19.464 92.623 19.256 92.8683 18.84C93.1136 18.424 93.3323 17.6827 93.5243 16.616L93.8283 15C93.391 15.0107 92.9856 15.1813 92.6123 15.512C92.239 15.832 91.9403 16.2587 91.7163 16.792C91.4923 17.3253 91.3803 17.8907 91.3803 18.488C91.3803 18.808 91.439 19.0533 91.5563 19.224C91.6843 19.384 91.8496 19.464 92.0523 19.464ZM112.767 17.432C112.905 17.432 113.012 17.496 113.087 17.624C113.172 17.752 113.215 17.928 113.215 18.152C113.215 18.568 113.113 18.8987 112.911 19.144C112.313 19.8587 111.732 20.36 111.167 20.648C110.612 20.936 109.94 21.08 109.151 21.08C108.596 21.08 108.084 21.0107 107.615 20.872C107.145 20.7333 106.575 20.5253 105.903 20.248C105.295 19.9813 104.708 19.7627 104.143 19.592C103.599 20.584 102.783 21.08 101.695 21.08C101.097 21.08 100.623 20.9467 100.271 20.68C99.9081 20.4027 99.7268 20.0507 99.7268 19.624C99.7268 19.1013 99.9775 18.6693 100.479 18.328C100.98 17.976 101.647 17.8 102.479 17.8H102.687L102.975 13.144C103.039 12.0773 103.231 11.1973 103.551 10.504C103.871 9.81067 104.313 9.21867 104.879 8.728C105.369 8.30133 105.929 7.98133 106.559 7.768C107.188 7.544 107.855 7.432 108.559 7.432C109.711 7.432 110.596 7.73067 111.215 8.328C111.833 8.92533 112.143 9.704 112.143 10.664C112.143 11.3147 112.025 11.8427 111.791 12.248C111.556 12.6427 111.231 12.84 110.815 12.84C110.516 12.84 110.281 12.7707 110.111 12.632C109.94 12.4827 109.855 12.2747 109.855 12.008C109.855 11.912 109.876 11.736 109.919 11.48C109.983 11.1813 110.015 10.9147 110.015 10.68C110.015 10.232 109.881 9.88 109.615 9.624C109.359 9.35733 108.964 9.224 108.431 9.224C107.492 9.224 106.767 9.53333 106.255 10.152C105.743 10.76 105.417 11.72 105.279 13.032L104.911 16.664C104.857 17.176 104.788 17.6187 104.703 17.992C105.385 18.1093 106.239 18.296 107.263 18.552C107.86 18.7013 108.319 18.808 108.639 18.872C108.959 18.936 109.241 18.968 109.487 18.968C110.105 18.968 110.633 18.8667 111.071 18.664C111.519 18.4507 111.94 18.1147 112.335 17.656C112.463 17.5067 112.607 17.432 112.767 17.432ZM114.012 12.488C113.564 12.488 113.228 12.3867 113.004 12.184C112.78 11.9707 112.668 11.6773 112.668 11.304C112.668 10.9307 112.812 10.6213 113.1 10.376C113.399 10.12 113.767 9.992 114.204 9.992C114.599 9.992 114.919 10.088 115.164 10.28C115.41 10.472 115.532 10.744 115.532 11.096C115.532 11.5227 115.394 11.864 115.116 12.12C114.839 12.3653 114.471 12.488 114.012 12.488ZM113.884 21.08C113.191 21.08 112.684 20.8347 112.364 20.344C112.055 19.8533 111.9 19.2027 111.9 18.392C111.9 17.912 111.959 17.2987 112.076 16.552C112.204 15.7947 112.364 15.0907 112.556 14.44C112.652 14.0987 112.78 13.864 112.94 13.736C113.1 13.608 113.356 13.544 113.708 13.544C114.252 13.544 114.524 13.7253 114.524 14.088C114.524 14.3547 114.423 14.9733 114.22 15.944C113.964 17.1173 113.836 17.912 113.836 18.328C113.836 18.648 113.879 18.8933 113.964 19.064C114.05 19.2347 114.194 19.32 114.396 19.32C114.588 19.32 114.828 19.1867 115.116 18.92C115.404 18.6533 115.788 18.232 116.268 17.656C116.396 17.5067 116.54 17.432 116.7 17.432C116.839 17.432 116.946 17.496 117.02 17.624C117.106 17.752 117.148 17.928 117.148 18.152C117.148 18.5787 117.047 18.9093 116.844 19.144C115.788 20.4347 114.802 21.08 113.884 21.08ZM116.99 21.08C116.585 21.08 116.297 20.8667 116.126 20.44C115.966 20.0133 115.886 19.3307 115.886 18.392C115.886 17.0053 116.083 15.688 116.478 14.44C116.574 14.1307 116.729 13.9067 116.942 13.768C117.166 13.6187 117.475 13.544 117.87 13.544C118.083 13.544 118.233 13.5707 118.318 13.624C118.403 13.6773 118.446 13.7787 118.446 13.928C118.446 14.0987 118.366 14.4827 118.206 15.08C118.099 15.5067 118.014 15.88 117.95 16.2C117.886 16.5093 117.833 16.8987 117.79 17.368C118.078 16.536 118.419 15.832 118.814 15.256C119.219 14.68 119.63 14.2533 120.046 13.976C120.473 13.688 120.873 13.544 121.246 13.544C121.619 13.544 121.881 13.6293 122.03 13.8C122.19 13.9707 122.27 14.232 122.27 14.584C122.27 14.9253 122.169 15.544 121.966 16.44C121.881 16.824 121.822 17.112 121.79 17.304C122.323 15.992 122.915 15.0373 123.566 14.44C124.217 13.8427 124.825 13.544 125.39 13.544C126.083 13.544 126.43 13.8907 126.43 14.584C126.43 15 126.313 15.752 126.078 16.84C125.875 17.768 125.774 18.3813 125.774 18.68C125.774 19.1067 125.929 19.32 126.238 19.32C126.451 19.32 126.702 19.192 126.99 18.936C127.289 18.6693 127.683 18.2427 128.174 17.656C128.302 17.5067 128.446 17.432 128.606 17.432C128.745 17.432 128.851 17.496 128.926 17.624C129.011 17.752 129.054 17.928 129.054 18.152C129.054 18.5787 128.953 18.9093 128.75 19.144C128.291 19.7093 127.795 20.1733 127.262 20.536C126.739 20.8987 126.142 21.08 125.47 21.08C124.926 21.08 124.515 20.9253 124.238 20.616C123.961 20.296 123.822 19.8373 123.822 19.24C123.822 18.9413 123.897 18.408 124.046 17.64C124.185 16.968 124.254 16.504 124.254 16.248C124.254 16.0773 124.195 15.992 124.078 15.992C123.939 15.992 123.742 16.1733 123.486 16.536C123.23 16.888 122.974 17.3573 122.718 17.944C122.462 18.5307 122.254 19.1493 122.094 19.8C121.977 20.312 121.838 20.6533 121.678 20.824C121.529 20.9947 121.283 21.08 120.942 21.08C120.59 21.08 120.323 20.9147 120.142 20.584C119.971 20.2427 119.886 19.832 119.886 19.352C119.886 18.9467 119.939 18.36 120.046 17.592C120.131 16.9093 120.174 16.4613 120.174 16.248C120.174 16.0773 120.115 15.992 119.998 15.992C119.838 15.992 119.635 16.184 119.39 16.568C119.145 16.952 118.905 17.4427 118.67 18.04C118.446 18.6373 118.265 19.224 118.126 19.8C118.009 20.3013 117.87 20.6427 117.71 20.824C117.561 20.9947 117.321 21.08 116.99 21.08ZM133.488 17.912C133.627 17.912 133.734 17.976 133.808 18.104C133.894 18.232 133.936 18.408 133.936 18.632C133.936 19.016 133.846 19.3467 133.664 19.624C133.366 20.0827 132.971 20.44 132.48 20.696C132 20.952 131.424 21.08 130.752 21.08C129.728 21.08 128.934 20.776 128.368 20.168C127.803 19.5493 127.52 18.7173 127.52 17.672C127.52 16.936 127.675 16.2533 127.984 15.624C128.294 14.984 128.72 14.4773 129.264 14.104C129.819 13.7307 130.443 13.544 131.136 13.544C131.755 13.544 132.251 13.7307 132.624 14.104C132.998 14.4667 133.184 14.9627 133.184 15.592C133.184 16.328 132.918 16.9627 132.384 17.496C131.862 18.0187 130.966 18.4347 129.696 18.744C129.952 19.2347 130.384 19.48 130.992 19.48C131.43 19.48 131.787 19.3787 132.064 19.176C132.352 18.9733 132.683 18.632 133.056 18.152C133.184 17.992 133.328 17.912 133.488 17.912ZM130.864 15.112C130.47 15.112 130.134 15.3413 129.856 15.8C129.59 16.2587 129.456 16.8133 129.456 17.464V17.496C130.086 17.3467 130.582 17.1227 130.944 16.824C131.307 16.5253 131.488 16.1787 131.488 15.784C131.488 15.5813 131.43 15.4213 131.312 15.304C131.206 15.176 131.056 15.112 130.864 15.112Z" fill="white"/>
</svg>
