<svg width="16" height="16" viewBox="0 0 16 16" fill="none" xmlns="http://www.w3.org/2000/svg">
<path d="M8 0C3.58387 0 0 3.58387 0 8C0 12.4161 3.58387 16 8 16C12.4161 16 16 12.4161 16 8C16 3.58387 12.4161 0 8 0ZM11.2484 11.771C11.1129 11.771 11.029 11.729 10.9032 11.6548C8.89032 10.4419 6.54839 10.3903 4.23548 10.8645C4.10968 10.8968 3.94516 10.9484 3.85161 10.9484C3.53871 10.9484 3.34194 10.7 3.34194 10.4387C3.34194 10.1065 3.53871 9.94839 3.78064 9.89677C6.42258 9.3129 9.12258 9.36452 11.4258 10.7419C11.6226 10.8677 11.7387 10.9806 11.7387 11.2742C11.7387 11.5677 11.5097 11.771 11.2484 11.771ZM12.1161 9.65484C11.9484 9.65484 11.8355 9.58064 11.7194 9.51935C9.70323 8.32581 6.69677 7.84516 4.02258 8.57097C3.86774 8.6129 3.78387 8.65484 3.63871 8.65484C3.29355 8.65484 3.0129 8.37419 3.0129 8.02903C3.0129 7.68387 3.18065 7.45484 3.5129 7.36129C4.40968 7.10968 5.32581 6.92258 6.66774 6.92258C8.76129 6.92258 10.7839 7.44194 12.3774 8.39032C12.6387 8.54516 12.7419 8.74516 12.7419 9.02581C12.7387 9.37419 12.4677 9.65484 12.1161 9.65484ZM13.1161 7.19677C12.9484 7.19677 12.8452 7.15484 12.7 7.07097C10.4032 5.7 6.29677 5.37097 3.63871 6.1129C3.52258 6.14516 3.37742 6.19677 3.22258 6.19677C2.79677 6.19677 2.47097 5.86452 2.47097 5.43548C2.47097 4.99677 2.74194 4.74839 3.03226 4.66452C4.16774 4.33226 5.43871 4.17419 6.82258 4.17419C9.17742 4.17419 11.6452 4.66452 13.4484 5.71613C13.7 5.86129 13.8645 6.06129 13.8645 6.44516C13.8645 6.88387 13.5097 7.19677 13.1161 7.19677Z" fill="#A4FFA2"/>
</svg>
