<svg width="32" height="32" viewBox="0 0 32 32" fill="none" xmlns="http://www.w3.org/2000/svg">
<circle opacity="0.2" cx="16" cy="16" r="16" fill="white"/>
<path d="M20.5714 14.8571C22.4643 14.8571 24 13.3214 24 11.4286C24 9.53571 22.4643 8 20.5714 8C18.6786 8 17.1429 9.53571 17.1429 11.4286C17.1429 11.5714 17.15 11.7143 17.1679 11.8536L13.8071 13.5321C13.1929 12.9357 12.3536 12.5714 11.4286 12.5714C9.53571 12.5714 8 14.1071 8 16C8 17.8929 9.53571 19.4286 11.4286 19.4286C12.3536 19.4286 13.1929 19.0643 13.8071 18.4679L17.1679 20.1464C17.15 20.2857 17.1429 20.425 17.1429 20.5714C17.1429 22.4643 18.6786 24 20.5714 24C22.4643 24 24 22.4643 24 20.5714C24 18.6786 22.4643 17.1429 20.5714 17.1429C19.6464 17.1429 18.8071 17.5071 18.1929 18.1036L14.8321 16.425C14.85 16.2857 14.8571 16.1464 14.8571 16C14.8571 15.8536 14.85 15.7143 14.8321 15.575L18.1929 13.8964C18.8071 14.4929 19.6464 14.8571 20.5714 14.8571Z" fill="#A4FFA2"/>
</svg>
