<svg width="32" height="33" viewBox="0 0 32 33" fill="none" xmlns="http://www.w3.org/2000/svg">
<path d="M19.3829 17.7097L19.3829 26.4845C19.3502 26.9742 19.7682 27.6756 20.6237 27.5896C23.0596 27.2521 25.3715 26.2794 27.298 24.7838C27.5527 24.5787 28.0425 23.8904 27.3764 23.1096L21.2833 16.909C20.3821 16.0421 19.3829 16.4524 19.3829 17.7097Z" fill="#F47DDA"/>
<path d="M14.5372 14.0835L5.87758 14.0835C5.23757 14.0835 4.69553 14.6592 4.76084 15.3408C5.0939 17.8091 6.0539 20.1517 7.52982 22.1039C7.96084 22.6664 8.72492 22.6333 9.18207 22.1833L15.3274 15.9827C16.1568 15.0166 15.5494 14.0835 14.5372 14.0835Z" fill="#F47DDA"/>
<path d="M10.1682 24.8103C12.0947 26.3257 14.4065 27.2786 16.8424 27.6161C17.8155 27.6955 18.0833 26.8418 18.0833 26.511L18.0833 17.7097C18.0833 16.4524 16.8816 16.0355 16.2025 16.909L10.0571 23.136C9.56081 23.7515 9.71755 24.4728 10.1682 24.8103Z" fill="#F47DDA"/>
<path d="M7.54931 4.74611C6.0538 6.69828 5.11339 9.04087 4.78033 11.5092C4.70196 12.2107 5.19829 12.7401 5.87094 12.7665L14.5371 12.7665C15.7583 12.7731 16.0065 11.7077 15.3273 10.8607L9.18197 4.66009C8.94686 4.44171 8.21543 4.01157 7.54931 4.74611Z" fill="#F47DDA"/>
<path d="M16.1567 13.4418C16.64 13.8785 16.9665 14.6726 16.9208 15.2947C17.9853 15.288 18.5208 15.8108 18.7494 16.0424C18.978 15.8108 19.6245 15.2748 20.578 15.2947L16.9208 11.5889C16.9535 12.244 16.64 13.005 16.1567 13.4418Z" fill="#F47DDA"/>
<path d="M32 26.8685L29.0286 23.8311C29.0874 24.4664 28.6955 25.3465 28.1143 25.8097C26.0049 27.4575 23.471 28.5097 20.8261 28.8736C20.1404 28.9795 19.089 28.6155 18.7429 28.1258C18.0833 28.7942 17.3453 28.9729 16.6596 28.8736C14.0212 28.5163 11.4808 27.4575 9.37144 25.8097C8.79021 25.3465 8.45062 24.6914 8.45715 23.8311C7.59511 23.8575 6.90939 23.4473 6.47837 22.9046C4.85225 20.7672 3.81388 18.1996 3.4547 15.5195C3.33714 14.56 3.73551 13.8453 4.19266 13.4085C4.16653 13.382 3.27184 12.674 3.4547 11.324C3.80735 8.65054 4.85225 6.07633 6.47837 3.93888C6.88327 3.39624 7.54286 2.99257 8.45715 3.01243L5.48572 0.00146367C-1.82857 7.41306 -1.82858 19.4503 5.48572 26.8619C12.8 34.2735 24.6923 34.2801 32 26.8685Z" fill="#F47DDA"/>
<path d="M31.8441 0.00797446C31.8364 0.0159107 31.24 0.0413068 30.1115 0.0794008C29.8348 0.0889244 29.4005 0.10321 29.1482 0.111146C28.8959 0.120669 28.2766 0.141304 27.7719 0.158763C27.2673 0.176223 26.5976 0.198445 26.2841 0.207968L25.7137 0.228603L23.7518 2.29997C22.6738 3.43962 20.9749 5.23639 19.9764 6.29191C18.9778 7.34743 18.1628 8.21407 18.1659 8.21725C18.172 8.22201 18.5589 8.23788 19.8816 8.2855C20.1339 8.29502 20.5192 8.30931 20.7379 8.31724C20.9566 8.32518 21.3694 8.33947 21.6554 8.35058C21.9413 8.3601 22.1814 8.37438 22.189 8.38232C22.2028 8.39502 21.6645 8.95056 17.5389 13.206C16.5694 14.206 15.7758 15.0266 15.7758 15.0329C15.7758 15.0377 16.0113 15.0472 16.2988 15.0535C16.5878 15.0583 17.1887 15.071 17.6337 15.0805C18.0802 15.0885 18.4503 15.1028 18.4579 15.1107C18.4671 15.1202 18.4488 15.152 18.4121 15.1932C18.3784 15.2313 17.4334 16.3154 16.311 17.6027C15.1886 18.8899 14.2069 20.0153 14.1289 20.1026C14.0525 20.1899 13.9944 20.2629 14.0005 20.2661C14.0066 20.2677 14.1243 20.2042 14.2635 20.1248C14.9241 19.7407 19.2164 17.2582 21.8924 15.7107C23.5362 14.7583 24.888 13.9742 24.8972 13.9663C24.9063 13.9568 24.703 13.9536 24.3543 13.9599C22.6814 13.9869 20.9076 13.9996 20.8939 13.9853C20.8755 13.9663 20.4351 14.3361 25.0791 10.487C27.2734 8.66961 29.0717 7.17283 29.0763 7.16331C29.0809 7.14744 28.6313 7.14268 26.8835 7.1395C25.3483 7.13633 24.6846 7.12998 24.68 7.11728C24.677 7.10934 26.3238 5.50304 28.3377 3.55072L32 3.81966e-05H31.9266C31.8853 3.81966e-05 31.8486 0.0032127 31.8441 0.00797446Z" fill="#A4FFA2"/>
</svg>
