<svg width="152" height="102" viewBox="0 0 152 102" fill="none" xmlns="http://www.w3.org/2000/svg">
<path d="M6.568 91.12C5.976 91.12 5.552 90.992 5.296 90.736C5.04 90.464 4.912 89.96 4.912 89.224C4.912 88.728 4.96 88.096 5.056 87.328C5.168 86.544 5.344 85.472 5.584 84.112C6 81.6 6.328 79.424 6.568 77.584C6.712 76.432 6.784 75.472 6.784 74.704C6.784 73.984 6.52 73.624 5.992 73.624C5.576 73.624 5.072 73.84 4.48 74.272C3.904 74.688 3.264 75.36 2.56 76.288C2.336 76.592 2.088 76.744 1.816 76.744C1.592 76.744 1.392 76.64 1.216 76.432C1.056 76.208 0.976 75.96 0.976 75.688C0.976 75.432 1.024 75.176 1.12 74.92C1.232 74.648 1.408 74.344 1.648 74.008C2.416 72.936 3.272 72.112 4.216 71.536C5.16 70.944 6.104 70.648 7.048 70.648C7.928 70.648 8.6 70.928 9.064 71.488C9.544 72.048 9.784 72.864 9.784 73.936C9.784 74.368 9.744 74.88 9.664 75.472C9.584 76.048 9.512 76.52 9.448 76.888C9.384 77.256 9.336 77.512 9.304 77.656C10.216 75.048 11.24 73.232 12.376 72.208C13.512 71.168 14.76 70.648 16.12 70.648C17.16 70.648 17.976 71.016 18.568 71.752C19.176 72.488 19.48 73.528 19.48 74.872C19.48 75.4 19.408 76.056 19.264 76.84C20.064 74.632 21 73.048 22.072 72.088C23.144 71.128 24.376 70.648 25.768 70.648C26.888 70.648 27.744 71.008 28.336 71.728C28.944 72.448 29.248 73.456 29.248 74.752C29.248 75.456 29.144 76.312 28.936 77.32L27.472 84.184C27.312 84.984 27.232 85.672 27.232 86.248C27.232 86.92 27.384 87.424 27.688 87.76C28.008 88.096 28.448 88.264 29.008 88.264C29.536 88.264 30.048 88.088 30.544 87.736C31.056 87.384 31.656 86.8 32.344 85.984C32.536 85.76 32.752 85.648 32.992 85.648C33.2 85.648 33.36 85.744 33.472 85.936C33.6 86.128 33.664 86.392 33.664 86.728C33.664 87.352 33.512 87.848 33.208 88.216C32.376 89.224 31.552 89.96 30.736 90.424C29.92 90.888 29.064 91.12 28.168 91.12C26.808 91.12 25.744 90.72 24.976 89.92C24.208 89.104 23.824 88.016 23.824 86.656C23.824 85.712 24.016 84.344 24.4 82.552L25.36 78.16C25.392 78.016 25.448 77.76 25.528 77.392C25.608 77.024 25.672 76.68 25.72 76.36C25.768 76.024 25.792 75.696 25.792 75.376C25.792 74.816 25.68 74.4 25.456 74.128C25.248 73.84 24.944 73.696 24.544 73.696C23.792 73.696 23 74.184 22.168 75.16C21.352 76.12 20.568 77.72 19.816 79.96C19.08 82.2 18.48 85.112 18.016 88.696C17.904 89.656 17.704 90.304 17.416 90.64C17.144 90.96 16.696 91.12 16.072 91.12C15.528 91.12 15.128 90.992 14.872 90.736C14.632 90.48 14.512 90 14.512 89.296C14.512 88.64 14.6 87.784 14.776 86.728C14.952 85.656 15.176 84.4 15.448 82.96C16.184 79.088 16.552 76.592 16.552 75.472C16.552 74.864 16.432 74.416 16.192 74.128C15.968 73.84 15.624 73.696 15.16 73.696C14.376 73.696 13.568 74.144 12.736 75.04C11.904 75.92 11.088 77.496 10.288 79.768C9.504 82.024 8.848 85.08 8.32 88.936C8.208 89.752 8.04 90.32 7.816 90.64C7.608 90.96 7.192 91.12 6.568 91.12ZM34.6821 91.12C33.6901 91.12 32.8981 90.76 32.3061 90.04C31.7141 89.32 31.4181 88.376 31.4181 87.208C31.4181 85.928 31.7141 84.72 32.3061 83.584C32.8981 82.432 33.6821 81.512 34.6581 80.824C35.6501 80.12 36.6981 79.768 37.8021 79.768C38.1541 79.768 38.3861 79.84 38.4981 79.984C38.6261 80.112 38.7301 80.352 38.8101 80.704C39.1461 80.64 39.4981 80.608 39.8661 80.608C40.6501 80.608 41.0421 80.888 41.0421 81.448C41.0421 81.784 40.9221 82.584 40.6821 83.848C40.3141 85.688 40.1301 86.968 40.1301 87.688C40.1301 87.928 40.1861 88.12 40.2981 88.264C40.4261 88.408 40.5861 88.48 40.7781 88.48C41.0821 88.48 41.4501 88.288 41.8821 87.904C42.3141 87.504 42.8981 86.864 43.6341 85.984C43.8261 85.76 44.0421 85.648 44.2821 85.648C44.4901 85.648 44.6501 85.744 44.7621 85.936C44.8901 86.128 44.9541 86.392 44.9541 86.728C44.9541 87.368 44.8021 87.864 44.4981 88.216C43.8421 89.032 43.1461 89.72 42.4101 90.28C41.6741 90.84 40.9621 91.12 40.2741 91.12C39.7461 91.12 39.2581 90.944 38.8101 90.592C38.3781 90.224 38.0501 89.728 37.8261 89.104C36.9941 90.448 35.9461 91.12 34.6821 91.12ZM35.5461 88.696C35.8981 88.696 36.2341 88.488 36.5541 88.072C36.8741 87.656 37.1061 87.104 37.2501 86.416L38.1381 82C37.4661 82.016 36.8421 82.272 36.2661 82.768C35.7061 83.248 35.2581 83.888 34.9221 84.688C34.5861 85.488 34.4181 86.336 34.4181 87.232C34.4181 87.728 34.5141 88.096 34.7061 88.336C34.9141 88.576 35.1941 88.696 35.5461 88.696ZM55.2916 85.696C55.4996 85.696 55.6596 85.8 55.7716 86.008C55.8996 86.2 55.9636 86.448 55.9636 86.752C55.9636 87.12 55.9076 87.408 55.7956 87.616C55.6836 87.824 55.5076 88.008 55.2676 88.168C53.8916 89.096 52.8836 89.784 52.2436 90.232L50.7076 91.264C50.0996 94.576 49.2996 97.176 48.3076 99.064C47.3316 100.968 46.0836 101.92 44.5636 101.92C43.7476 101.92 43.0836 101.664 42.5716 101.152C42.0596 100.656 41.8036 100 41.8036 99.184C41.8036 98.048 42.2516 96.824 43.1476 95.512C44.0436 94.216 45.7236 92.616 48.1876 90.712L48.3316 89.776C48.0596 90.208 47.6996 90.544 47.2516 90.784C46.8196 91.008 46.3876 91.12 45.9556 91.12C44.9636 91.12 44.1716 90.76 43.5796 90.04C42.9876 89.32 42.6916 88.376 42.6916 87.208C42.6916 85.928 42.9876 84.72 43.5796 83.584C44.1716 82.432 44.9556 81.512 45.9316 80.824C46.9236 80.12 47.9716 79.768 49.0756 79.768C49.4276 79.768 49.6596 79.84 49.7716 79.984C49.8996 80.112 50.0036 80.352 50.0836 80.704C50.3876 80.64 50.7396 80.608 51.1396 80.608C51.5396 80.608 51.8196 80.672 51.9796 80.8C52.1556 80.912 52.2436 81.144 52.2436 81.496C52.2436 81.688 52.2356 81.84 52.2196 81.952C52.1556 82.448 51.9556 83.704 51.6196 85.72C51.5556 86.104 51.4836 86.528 51.4036 86.992C51.3396 87.44 51.2676 87.92 51.1876 88.432C52.4196 87.472 53.6036 86.624 54.7396 85.888C54.9476 85.76 55.1316 85.696 55.2916 85.696ZM46.8196 88.696C47.1876 88.696 47.5396 88.472 47.8756 88.024C48.2116 87.576 48.4516 86.936 48.5956 86.104L49.3636 82C48.7076 82.016 48.0996 82.272 47.5396 82.768C46.9796 83.248 46.5316 83.888 46.1956 84.688C45.8596 85.488 45.6916 86.336 45.6916 87.232C45.6916 87.728 45.7876 88.096 45.9796 88.336C46.1876 88.576 46.4676 88.696 46.8196 88.696ZM44.8276 99.592C45.2276 99.592 45.6756 99.112 46.1716 98.152C46.6836 97.192 47.1716 95.664 47.6356 93.568C46.4036 94.624 45.5156 95.576 44.9716 96.424C44.4276 97.272 44.1556 98.016 44.1556 98.656C44.1556 98.928 44.2036 99.152 44.2996 99.328C44.4116 99.504 44.5876 99.592 44.8276 99.592ZM65.1919 85.648C65.3999 85.648 65.5599 85.744 65.6719 85.936C65.7999 86.128 65.8639 86.392 65.8639 86.728C65.8639 87.368 65.7119 87.864 65.4079 88.216C64.8159 88.936 63.9759 89.6 62.8879 90.208C61.8159 90.816 60.6639 91.12 59.4319 91.12C57.7519 91.12 56.4479 90.664 55.5199 89.752C54.5919 88.84 54.1279 87.592 54.1279 86.008C54.1279 84.904 54.3599 83.88 54.8239 82.936C55.2879 81.976 55.9279 81.216 56.7439 80.656C57.5759 80.096 58.5119 79.816 59.5519 79.816C60.4799 79.816 61.2239 80.096 61.7839 80.656C62.3439 81.2 62.6239 81.944 62.6239 82.888C62.6239 83.992 62.2239 84.944 61.4239 85.744C60.6399 86.528 59.3039 87.152 57.4159 87.616C57.8159 88.352 58.5759 88.72 59.6959 88.72C60.4159 88.72 61.2319 88.472 62.1439 87.976C63.0719 87.464 63.8719 86.8 64.5439 85.984C64.7359 85.76 64.9519 85.648 65.1919 85.648ZM59.1439 82.168C58.5519 82.168 58.0479 82.512 57.6319 83.2C57.2319 83.888 57.0319 84.72 57.0319 85.696V85.744C57.9759 85.52 58.7199 85.184 59.2639 84.736C59.8079 84.288 60.0799 83.768 60.0799 83.176C60.0799 82.872 59.9919 82.632 59.8159 82.456C59.6559 82.264 59.4319 82.168 59.1439 82.168ZM65.6138 91.12C65.0058 91.12 64.5738 90.8 64.3178 90.16C64.0778 89.52 63.9578 88.496 63.9578 87.088C63.9578 85.008 64.2538 83.032 64.8458 81.16C64.9898 80.696 65.2218 80.36 65.5418 80.152C65.8778 79.928 66.3418 79.816 66.9338 79.816C67.2538 79.816 67.4778 79.856 67.6058 79.936C67.7338 80.016 67.7978 80.168 67.7978 80.392C67.7978 80.648 67.6778 81.224 67.4378 82.12C67.2778 82.76 67.1498 83.32 67.0538 83.8C66.9578 84.28 66.8778 84.872 66.8138 85.576C67.3418 84.2 67.9338 83.08 68.5898 82.216C69.2458 81.352 69.8858 80.736 70.5098 80.368C71.1498 80 71.7338 79.816 72.2618 79.816C73.3018 79.816 73.8218 80.336 73.8218 81.376C73.8218 82 73.6458 83.128 73.2938 84.76C72.9898 86.152 72.8378 87.072 72.8378 87.52C72.8378 88.16 73.0698 88.48 73.5338 88.48C73.8538 88.48 74.2298 88.288 74.6618 87.904C75.1098 87.504 75.7018 86.864 76.4378 85.984C76.6298 85.76 76.8458 85.648 77.0858 85.648C77.2938 85.648 77.4538 85.744 77.5658 85.936C77.6938 86.128 77.7578 86.392 77.7578 86.728C77.7578 87.368 77.6058 87.864 77.3018 88.216C76.6138 89.064 75.8698 89.76 75.0698 90.304C74.2858 90.848 73.3898 91.12 72.3818 91.12C71.5658 91.12 70.9498 90.888 70.5338 90.424C70.1178 89.944 69.9098 89.256 69.9098 88.36C69.9098 87.912 70.0218 87.112 70.2458 85.96C70.4538 84.952 70.5578 84.256 70.5578 83.872C70.5578 83.616 70.4698 83.488 70.2938 83.488C70.0858 83.488 69.7898 83.76 69.4058 84.304C69.0378 84.832 68.6538 85.536 68.2538 86.416C67.8698 87.296 67.5578 88.224 67.3178 89.2C67.1418 89.952 66.9338 90.464 66.6938 90.736C66.4698 90.992 66.1098 91.12 65.6138 91.12ZM86.5201 85.648C86.7281 85.648 86.8881 85.744 87.0001 85.936C87.1281 86.128 87.1921 86.392 87.1921 86.728C87.1921 87.368 87.0401 87.864 86.7361 88.216C86.0481 89.064 85.2961 89.76 84.4801 90.304C83.6641 90.848 82.7281 91.12 81.6721 91.12C78.4081 91.12 76.7761 88.824 76.7761 84.232C76.7761 83.528 76.8001 82.816 76.8481 82.096H75.9121C75.4321 82.096 75.1041 82.008 74.9281 81.832C74.7681 81.656 74.6881 81.376 74.6881 80.992C74.6881 80.096 75.0481 79.648 75.7681 79.648H77.1361C77.4081 77.888 77.8241 76.28 78.3841 74.824C78.9441 73.368 79.6161 72.208 80.4001 71.344C81.2001 70.48 82.0561 70.048 82.9681 70.048C83.6401 70.048 84.1681 70.344 84.5521 70.936C84.9361 71.528 85.1281 72.272 85.1281 73.168C85.1281 75.648 84.0881 77.808 82.0081 79.648H84.6961C84.9521 79.648 85.1361 79.704 85.2481 79.816C85.3601 79.928 85.4161 80.136 85.4161 80.44C85.4161 81.544 84.5121 82.096 82.7041 82.096H79.7761C79.7441 82.896 79.7281 83.52 79.7281 83.968C79.7281 85.632 79.9201 86.8 80.3041 87.472C80.7041 88.144 81.3281 88.48 82.1761 88.48C82.8641 88.48 83.4721 88.272 84.0001 87.856C84.5281 87.44 85.1521 86.816 85.8721 85.984C86.0641 85.76 86.2801 85.648 86.5201 85.648ZM82.3201 72.352C82.0801 72.352 81.8081 72.656 81.5041 73.264C81.2161 73.856 80.9361 74.688 80.6641 75.76C80.4081 76.816 80.1921 77.992 80.0161 79.288C80.9601 78.472 81.6641 77.56 82.1281 76.552C82.6081 75.528 82.8481 74.6 82.8481 73.768C82.8481 72.824 82.6721 72.352 82.3201 72.352ZM87.9979 91.12C87.0859 91.12 86.3419 90.76 85.7659 90.04C85.2059 89.32 84.9259 88.376 84.9259 87.208C84.9259 85.928 85.2219 84.72 85.8139 83.584C86.4059 82.432 87.1899 81.512 88.1659 80.824C89.1579 80.12 90.2059 79.768 91.3099 79.768C91.6619 79.768 91.8939 79.84 92.0059 79.984C92.1339 80.112 92.2379 80.352 92.3179 80.704C92.6219 80.64 92.9579 80.608 93.3259 80.608C93.7099 80.608 94.0059 80.704 94.2139 80.896C94.4219 81.088 94.5259 81.36 94.5259 81.712C94.5259 82.08 94.4459 82.72 94.2859 83.632C94.1099 84.608 93.9739 85.544 93.8779 86.44C93.7819 87.32 93.7339 88.312 93.7339 89.416C93.7339 90.024 93.6059 90.464 93.3499 90.736C93.1099 90.992 92.7099 91.12 92.1499 91.12C91.6059 91.12 91.1979 90.992 90.9259 90.736C90.6699 90.464 90.5419 90.032 90.5419 89.44L90.5659 89.056C90.0699 90.432 89.2139 91.12 87.9979 91.12ZM88.9339 88.696C89.3819 88.696 89.7899 88.384 90.1579 87.76C90.5259 87.136 90.8539 86.024 91.1419 84.424L91.5979 82C90.9419 82.016 90.3339 82.272 89.7739 82.768C89.2139 83.248 88.7659 83.888 88.4299 84.688C88.0939 85.488 87.9259 86.336 87.9259 87.232C87.9259 87.712 88.0139 88.08 88.1899 88.336C88.3819 88.576 88.6299 88.696 88.9339 88.696ZM120.006 85.648C120.214 85.648 120.374 85.744 120.486 85.936C120.614 86.128 120.678 86.392 120.678 86.728C120.678 87.352 120.526 87.848 120.222 88.216C119.326 89.288 118.454 90.04 117.606 90.472C116.774 90.904 115.766 91.12 114.582 91.12C113.75 91.12 112.982 91.016 112.278 90.808C111.574 90.6 110.718 90.288 109.71 89.872C108.798 89.472 107.918 89.144 107.07 88.888C106.254 90.376 105.03 91.12 103.398 91.12C102.502 91.12 101.79 90.92 101.262 90.52C100.718 90.104 100.446 89.576 100.446 88.936C100.446 88.152 100.822 87.504 101.574 86.992C102.326 86.464 103.326 86.2 104.574 86.2H104.886L105.318 79.216C105.414 77.616 105.702 76.296 106.182 75.256C106.662 74.216 107.326 73.328 108.174 72.592C108.91 71.952 109.75 71.472 110.694 71.152C111.638 70.816 112.638 70.648 113.694 70.648C115.422 70.648 116.75 71.096 117.678 71.992C118.606 72.888 119.07 74.056 119.07 75.496C119.07 76.472 118.894 77.264 118.542 77.872C118.19 78.464 117.702 78.76 117.078 78.76C116.63 78.76 116.278 78.656 116.022 78.448C115.766 78.224 115.638 77.912 115.638 77.512C115.638 77.368 115.67 77.104 115.734 76.72C115.83 76.272 115.878 75.872 115.878 75.52C115.878 74.848 115.678 74.32 115.278 73.936C114.894 73.536 114.302 73.336 113.502 73.336C112.094 73.336 111.006 73.8 110.238 74.728C109.47 75.64 108.982 77.08 108.774 79.048L108.222 84.496C108.142 85.264 108.038 85.928 107.91 86.488C108.934 86.664 110.214 86.944 111.75 87.328C112.646 87.552 113.334 87.712 113.814 87.808C114.294 87.904 114.718 87.952 115.086 87.952C116.014 87.952 116.806 87.8 117.462 87.496C118.134 87.176 118.766 86.672 119.358 85.984C119.55 85.76 119.766 85.648 120.006 85.648ZM121.874 78.232C121.202 78.232 120.698 78.08 120.362 77.776C120.026 77.456 119.858 77.016 119.858 76.456C119.858 75.896 120.074 75.432 120.506 75.064C120.954 74.68 121.506 74.488 122.162 74.488C122.754 74.488 123.234 74.632 123.602 74.92C123.97 75.208 124.154 75.616 124.154 76.144C124.154 76.784 123.946 77.296 123.53 77.68C123.114 78.048 122.562 78.232 121.874 78.232ZM121.682 91.12C120.642 91.12 119.882 90.752 119.402 90.016C118.938 89.28 118.706 88.304 118.706 87.088C118.706 86.368 118.794 85.448 118.97 84.328C119.162 83.192 119.402 82.136 119.69 81.16C119.834 80.648 120.026 80.296 120.266 80.104C120.506 79.912 120.89 79.816 121.418 79.816C122.234 79.816 122.642 80.088 122.642 80.632C122.642 81.032 122.49 81.96 122.186 83.416C121.802 85.176 121.61 86.368 121.61 86.992C121.61 87.472 121.674 87.84 121.802 88.096C121.93 88.352 122.146 88.48 122.45 88.48C122.738 88.48 123.098 88.28 123.53 87.88C123.962 87.48 124.538 86.848 125.258 85.984C125.45 85.76 125.666 85.648 125.906 85.648C126.114 85.648 126.274 85.744 126.386 85.936C126.514 86.128 126.578 86.392 126.578 86.728C126.578 87.368 126.426 87.864 126.122 88.216C124.538 90.152 123.058 91.12 121.682 91.12ZM126.34 91.12C125.732 91.12 125.3 90.8 125.044 90.16C124.804 89.52 124.684 88.496 124.684 87.088C124.684 85.008 124.98 83.032 125.572 81.16C125.716 80.696 125.948 80.36 126.268 80.152C126.604 79.928 127.068 79.816 127.66 79.816C127.98 79.816 128.204 79.856 128.332 79.936C128.46 80.016 128.524 80.168 128.524 80.392C128.524 80.648 128.404 81.224 128.164 82.12C128.004 82.76 127.876 83.32 127.78 83.8C127.684 84.264 127.604 84.848 127.54 85.552C127.972 84.304 128.484 83.248 129.076 82.384C129.684 81.52 130.3 80.88 130.924 80.464C131.564 80.032 132.164 79.816 132.724 79.816C133.284 79.816 133.676 79.944 133.9 80.2C134.14 80.456 134.26 80.848 134.26 81.376C134.26 81.888 134.108 82.816 133.804 84.16C133.676 84.736 133.588 85.168 133.54 85.456C134.34 83.488 135.228 82.056 136.204 81.16C137.18 80.264 138.092 79.816 138.94 79.816C139.98 79.816 140.5 80.336 140.5 81.376C140.5 82 140.324 83.128 139.972 84.76C139.668 86.152 139.516 87.072 139.516 87.52C139.516 88.16 139.748 88.48 140.212 88.48C140.532 88.48 140.908 88.288 141.34 87.904C141.788 87.504 142.38 86.864 143.116 85.984C143.308 85.76 143.524 85.648 143.764 85.648C143.972 85.648 144.132 85.744 144.244 85.936C144.372 86.128 144.436 86.392 144.436 86.728C144.436 87.368 144.284 87.864 143.98 88.216C143.292 89.064 142.548 89.76 141.748 90.304C140.964 90.848 140.068 91.12 139.06 91.12C138.244 91.12 137.628 90.888 137.212 90.424C136.796 89.944 136.588 89.256 136.588 88.36C136.588 87.912 136.7 87.112 136.924 85.96C137.132 84.952 137.236 84.256 137.236 83.872C137.236 83.616 137.148 83.488 136.972 83.488C136.764 83.488 136.468 83.76 136.084 84.304C135.7 84.832 135.316 85.536 134.932 86.416C134.548 87.296 134.236 88.224 133.996 89.2C133.82 89.968 133.612 90.48 133.372 90.736C133.148 90.992 132.78 91.12 132.268 91.12C131.74 91.12 131.34 90.872 131.068 90.376C130.812 89.864 130.684 89.248 130.684 88.528C130.684 87.92 130.764 87.04 130.924 85.888C131.052 84.864 131.116 84.192 131.116 83.872C131.116 83.616 131.028 83.488 130.852 83.488C130.612 83.488 130.308 83.776 129.94 84.352C129.572 84.928 129.212 85.664 128.86 86.56C128.524 87.456 128.252 88.336 128.044 89.2C127.868 89.952 127.66 90.464 127.42 90.736C127.196 90.992 126.836 91.12 126.34 91.12ZM151.088 86.368C151.296 86.368 151.456 86.464 151.568 86.656C151.696 86.848 151.76 87.112 151.76 87.448C151.76 88.024 151.624 88.52 151.352 88.936C150.904 89.624 150.312 90.16 149.576 90.544C148.856 90.928 147.992 91.12 146.984 91.12C145.448 91.12 144.256 90.664 143.408 89.752C142.56 88.824 142.136 87.576 142.136 86.008C142.136 84.904 142.368 83.88 142.832 82.936C143.296 81.976 143.936 81.216 144.752 80.656C145.584 80.096 146.52 79.816 147.56 79.816C148.488 79.816 149.232 80.096 149.792 80.656C150.352 81.2 150.632 81.944 150.632 82.888C150.632 83.992 150.232 84.944 149.432 85.744C148.648 86.528 147.304 87.152 145.4 87.616C145.784 88.352 146.432 88.72 147.344 88.72C148 88.72 148.536 88.568 148.952 88.264C149.384 87.96 149.88 87.448 150.44 86.728C150.632 86.488 150.848 86.368 151.088 86.368ZM147.152 82.168C146.56 82.168 146.056 82.512 145.64 83.2C145.24 83.888 145.04 84.72 145.04 85.696V85.744C145.984 85.52 146.728 85.184 147.272 84.736C147.816 84.288 148.088 83.768 148.088 83.176C148.088 82.872 148 82.632 147.824 82.456C147.664 82.264 147.44 82.168 147.152 82.168Z" fill="white"/>
<path d="M82.3438 32.7709L82.3438 49.008C82.2825 49.9142 83.0662 51.2122 84.6704 51.053C89.2378 50.4285 93.5726 48.6284 97.185 45.861C97.6625 45.4814 98.5809 44.2079 97.3319 42.763L85.9071 31.2892C84.2173 29.6851 82.3438 30.4443 82.3438 32.7709Z" fill="#F47DDA"/>
<path d="M73.2578 26.061L57.0207 26.061C55.8207 26.061 54.8043 27.1264 54.9268 28.3876C55.5513 32.9551 57.3513 37.2899 60.1187 40.9022C60.9269 41.9431 62.3596 41.8818 63.2168 41.0492L74.7395 29.5754C76.2946 27.7876 75.1558 26.061 73.2578 26.061Z" fill="#F47DDA"/>
<path d="M65.0658 45.9105C68.6781 48.7147 73.0129 50.478 77.5804 51.1025C79.4049 51.2494 79.907 49.6698 79.907 49.0575L79.907 32.7714C79.907 30.4448 77.6538 29.6734 76.3803 31.2897L64.8576 42.8125C63.927 43.9513 64.2208 45.286 65.0658 45.9105Z" fill="#F47DDA"/>
<path d="M60.1553 8.78229C57.3511 12.3946 55.5878 16.7294 54.9633 21.2969C54.8164 22.5949 55.747 23.5745 57.0083 23.6235L73.2576 23.6235C75.5475 23.6357 76.0128 21.6643 74.7393 20.0969L63.2166 8.62311C62.7757 8.21902 61.4043 7.42308 60.1553 8.78229Z" fill="#F47DDA"/>
<path d="M76.2945 24.873C77.2006 25.6812 77.8129 27.1506 77.7272 28.3017C79.7232 28.2894 80.7273 29.2568 81.1558 29.6854C81.5844 29.2568 82.7967 28.2649 84.5845 28.3017L77.7272 21.4443C77.7884 22.6566 77.2006 24.0648 76.2945 24.873Z" fill="#F47DDA"/>
<path d="M106.001 49.7185L100.43 44.0979C100.54 45.2735 99.8053 46.9021 98.7155 47.7592C94.7603 50.8083 90.0092 52.7553 85.0498 53.4288C83.7641 53.6247 81.7926 52.9512 81.1436 52.0451C79.9069 53.2818 78.5232 53.6124 77.2374 53.4288C72.2903 52.7675 67.527 50.8083 63.5718 47.7592C62.4819 46.9021 61.8452 45.6898 61.8574 44.0979C60.2411 44.1469 58.9553 43.3877 58.1471 42.3836C55.0981 38.4284 53.1511 33.6772 52.4776 28.7179C52.2572 26.9424 53.0041 25.6199 53.8613 24.8117C53.8123 24.7627 52.1347 23.4525 52.4776 20.9545C53.1388 16.0074 55.0981 11.244 58.1471 7.28883C58.9063 6.28472 60.1431 5.53776 61.8574 5.5745L56.2859 0.00292751C42.5712 13.7176 42.5712 35.9916 56.2859 49.7062C70.0005 63.4209 92.299 63.4331 106.001 49.7185Z" fill="#F47DDA"/>
<path d="M105.709 0.0147476C105.695 0.0294304 104.576 0.0764236 102.46 0.146915C101.941 0.164539 101.127 0.190971 100.654 0.205658C100.181 0.223278 99.0197 0.261463 98.0735 0.29377C97.1273 0.326077 95.8715 0.367199 95.2837 0.384819L94.2142 0.423004L90.5356 4.25592C88.5142 6.36475 85.3287 9.68954 83.4565 11.6427C81.5842 13.5959 80.0559 15.1995 80.0617 15.2054C80.0731 15.2142 80.7985 15.2436 83.2787 15.3317C83.7518 15.3493 84.4743 15.3758 84.8843 15.3905C85.2943 15.4051 86.0685 15.4316 86.6047 15.4521C87.1408 15.4698 87.591 15.4962 87.6053 15.5109C87.6311 15.5344 86.6219 16.5624 78.8861 24.4367C77.0683 26.2871 75.5802 27.8056 75.5802 27.8173C75.5802 27.8261 76.0218 27.8437 76.5608 27.8555C77.1027 27.8643 78.2295 27.8878 79.0639 27.9054C79.9011 27.9201 80.595 27.9465 80.6093 27.9612C80.6265 27.9789 80.5921 28.0376 80.5233 28.114C80.4602 28.1844 78.6883 30.1905 76.5837 32.5725C74.4792 34.9545 72.6385 37.0369 72.4922 37.1984C72.3489 37.3599 72.2399 37.495 72.2514 37.5009C72.2628 37.5039 72.4836 37.3864 72.7445 37.2395C73.9832 36.5287 82.0315 31.9351 87.0491 29.0715C90.1313 27.3092 92.666 25.8583 92.6832 25.8436C92.7004 25.826 92.319 25.8201 91.6653 25.8318C88.5286 25.8818 85.2026 25.9053 85.1768 25.8788C85.1424 25.8436 84.3166 26.5279 93.0244 19.4055C97.1388 16.0425 100.511 13.2728 100.519 13.2552C100.528 13.2258 99.6849 13.217 96.4077 13.2111C93.529 13.2053 92.2846 13.1935 92.276 13.17C92.2703 13.1553 95.3583 10.183 99.1344 6.57035L106.001 6.10352e-05H105.864C105.786 6.10352e-05 105.718 0.00593567 105.709 0.0147476Z" fill="#A4FFA2"/>
</svg>
